<svg xmlns="http://www.w3.org/2000/svg" width="51.599" height="50.765" viewBox="0 0 51.599 50.765">
  <g id="airport" transform="translate(-0.004 0)">
    <path id="Path_301710" data-name="Path 301710" d="M49.475,10.163,45.261,7.351a7.892,7.892,0,0,0-4.39-1.331H11.288L8.755.946A1.714,1.714,0,0,0,7.212,0H4.305a1.72,1.72,0,0,0-1.72,1.72V6.069a3.1,3.1,0,0,0-2.58,3,3.039,3.039,0,0,0,.43,1.539,2.58,2.58,0,0,0,2.15,4.007H6.363l3.79,2.275a14.145,14.145,0,0,0,7.3,2.024h4.771l.854.285a11.22,11.22,0,0,0,3.545.575h.04v.86a2.58,2.58,0,0,0,2.58,2.58H34.4a1.72,1.72,0,0,0,1.72-1.72v-1.72a3.411,3.411,0,0,0,2.251-.86h8.447A4.845,4.845,0,0,0,51.6,14.138,4.751,4.751,0,0,0,49.475,10.163ZM7.216,1.72l2.15,4.3H4.305V1.72ZM1.725,12.039a.86.86,0,0,1,.86-.86h6.88a.86.86,0,0,1,0,1.72H2.585a.86.86,0,0,1-.86-.86ZM34.4,21.5h-5.16a.86.86,0,0,1-.86-.86v-.86H34.4Zm1.72-3.44h-9.5a9.513,9.513,0,0,1-3-.486L18.5,15.865a.64.64,0,0,1,.2-1.246h17.42a1.72,1.72,0,0,1,0,3.44Zm10.7-.86h-7.38a3.389,3.389,0,0,0,.122-.86,3.44,3.44,0,0,0-3.44-3.44H18.7a2.356,2.356,0,0,0-1.339,4.3,12.449,12.449,0,0,1-6.323-1.775L9.672,14.6a2.574,2.574,0,0,0-.206-5.142H2.585a2.538,2.538,0,0,0-.757.126,1.346,1.346,0,0,1-.1-.516,1.368,1.368,0,0,1,1.333-1.33H40.871a6.174,6.174,0,0,1,3.436,1.042l1.019.678H39.564a.86.86,0,0,0,0,1.72H47.9l.624.416a3.037,3.037,0,0,1,1.361,2.542A3.1,3.1,0,0,1,46.822,17.2Z" transform="translate(0 0)"/>
    <path id="Path_301711" data-name="Path 301711" d="M318.329,93.867h-1.72a.86.86,0,1,0,0,1.72h1.72a.86.86,0,1,0,0-1.72Z" transform="translate(-283.925 -84.408)" fill="#2196f3"/>
    <path id="Path_301712" data-name="Path 301712" d="M164.729,93.867h-1.72a.86.86,0,1,0,0,1.72h1.72a.86.86,0,0,0,0-1.72Z" transform="translate(-145.804 -84.408)" fill="#2196f3"/>
    <path id="Path_301713" data-name="Path 301713" d="M267.129,93.867h-1.72a.86.86,0,1,0,0,1.72h1.72a.86.86,0,0,0,0-1.72Z" transform="translate(-237.884 -84.408)" fill="#2196f3"/>
    <path id="Path_301714" data-name="Path 301714" d="M215.929,93.867h-1.72a.86.86,0,1,0,0,1.72h1.72a.86.86,0,0,0,0-1.72Z" transform="translate(-191.844 -84.408)" fill="#2196f3"/>
    <path id="Path_301715" data-name="Path 301715" d="M49.538,218.3l-11.3-2.127-9.2-7.2a4.478,4.478,0,0,0-2.752-.939h-.8l-1.007-1.894a2.588,2.588,0,0,0-2.307-1.341H20.858a2.588,2.588,0,0,0-2.307,1.341l-1.007,1.894H16.063a4.474,4.474,0,0,0-3.042,1.183l-7.342,6.9H2.6a2.506,2.506,0,0,0-2.58,2.426v8.894a3.342,3.342,0,0,0,3.44,3.234h.3a5.241,5.241,0,0,0,6.57,2.96,5.007,5.007,0,0,0,3.148-2.96H36.436a5.241,5.241,0,0,0,6.57,2.96,5.007,5.007,0,0,0,3.148-2.96h2.881a2.506,2.506,0,0,0,2.58-2.426v-7.568a2.479,2.479,0,0,0-2.076-2.377Zm.356,2.377v1.1h-2.58a.835.835,0,0,1-.86-.809v-1.6l2.744.517A.829.829,0,0,1,49.894,220.681ZM27.939,210.218l7.538,5.9h-13.1v-6.468h3.913A2.687,2.687,0,0,1,27.939,210.218Zm-7.85-3.351a.862.862,0,0,1,.769-.449h1.314a.862.862,0,0,1,.769.447l.623,1.17h-4.1Zm-5.848,3.5a2.683,2.683,0,0,1,1.821-.711h4.592v6.468H8.112ZM2.6,217.738h.86v1.617a.835.835,0,0,1-.86.809h-.86v-1.617A.835.835,0,0,1,2.6,217.738Zm6.02,14.554a3.24,3.24,0,1,1,0-6.468,3.24,3.24,0,1,1,0,6.468Zm32.679,0a3.24,3.24,0,1,1,3.44-3.234A3.342,3.342,0,0,1,41.295,232.291Zm7.74-3.234h-2.58a5.17,5.17,0,0,0-10.32,0H13.775a5.013,5.013,0,0,0-5.16-4.851,5.013,5.013,0,0,0-5.16,4.851,1.671,1.671,0,0,1-1.72-1.617v-5.66H2.6a2.506,2.506,0,0,0,2.58-2.426v-1.617H37.769l6.966,1.311v1.924a2.506,2.506,0,0,0,2.58,2.426h2.58v4.851a.835.835,0,0,1-.86.808Z" transform="translate(-0.011 -183.145)"/>
  </g>
</svg>
