<svg id="event" xmlns="http://www.w3.org/2000/svg" width="49.365" height="50.765" viewBox="0 0 49.365 50.765">
  <g id="Group_78195" data-name="Group 78195" transform="translate(0)">
    <g id="Group_78194" data-name="Group 78194">
      <path id="Path_301717" data-name="Path 301717" d="M49,23.213h0V10.41a5.571,5.571,0,0,0-5.535-5.556h-.689V3.986a3.931,3.931,0,0,0-7.862,0v.868H20.5V3.986a3.986,3.986,0,1,0-7.972,0v.868h-.6a5.558,5.558,0,0,0-5.52,5.556v29.4a5.559,5.559,0,0,0,5.52,5.558H29.247A15,15,0,1,0,49,23.213ZM37.094,3.986a1.722,1.722,0,0,1,1.692-1.753h.046a1.739,1.739,0,0,1,1.757,1.72q0,.016,0,.033V8.239H37.094Zm-22.386,0A1.772,1.772,0,0,1,16.5,2.233H16.5a1.782,1.782,0,0,1,1.808,1.753V8.239h-3.6ZM8.593,10.41a3.371,3.371,0,0,1,3.336-3.372h.6V9.376a1.067,1.067,0,0,0,1.107,1.047h5.746A1.078,1.078,0,0,0,20.5,9.376V7.038H34.91V9.376a1.018,1.018,0,0,0,.988,1.047H41.7a1.034,1.034,0,0,0,1.068-1c0-.016,0-.032,0-.048V7.038h.689a3.385,3.385,0,0,1,3.351,3.372v3.507H8.593V10.41Zm3.336,32.773a3.373,3.373,0,0,1-3.336-3.374V16.1h38.22v5.925A15.016,15.016,0,0,0,27.734,43.183Zm28.846,5.379A12.808,12.808,0,1,1,53.582,35.754h0A12.823,12.823,0,0,1,40.774,48.562Z" transform="translate(-6.409)"/>
    </g>
  </g>
  <g id="Group_78197" data-name="Group 78197" transform="translate(32.542 28.095)">
    <g id="Group_78196" data-name="Group 78196">
      <path id="Path_301718" data-name="Path 301718" d="M311.377,264.941h-4.784V258.37a1.092,1.092,0,1,0-2.184,0v7.661a1.111,1.111,0,0,0,1.113,1.093h5.855a1.092,1.092,0,1,0,0-2.184Z" transform="translate(-304.409 -257.278)" fill="#2196f3"/>
    </g>
  </g>
</svg>
