<svg id="support" xmlns="http://www.w3.org/2000/svg" width="46.495" height="50.765" viewBox="0 0 46.495 50.765">
  <g id="Group_78200" data-name="Group 78200" transform="translate(0)">
    <path id="Path_301725" data-name="Path 301725" d="M59.35,20.985h-.126V17.906a17.906,17.906,0,1,0-35.812,0v3.079h-.754a5.117,5.117,0,0,0-4.9,5.278v7.854A4.963,4.963,0,0,0,22.594,39.2h4.714a1.194,1.194,0,0,0,1.136-1.249c0-.024,0-.047-.005-.071V22.492c0-.754-.44-1.508-1.131-1.508H25.926V17.906a15.393,15.393,0,1,1,30.786,0v3.079H55.329c-.691,0-1.131.754-1.131,1.508V37.885a1.194,1.194,0,0,0,1.06,1.314l.071.005h1.445l-.126.188a9.927,9.927,0,0,1-7.979,3.958,6.22,6.22,0,0,0-12.314,1.194,6.283,6.283,0,0,0,6.283,6.22,6.471,6.471,0,0,0,4.524-1.948A5.529,5.529,0,0,0,48.67,45.8a12.44,12.44,0,0,0,9.99-4.963l1.194-1.759c2.7-.188,4.4-1.885,4.4-4.335V26.89C64.251,24.189,62.241,20.985,59.35,20.985ZM25.926,36.692H22.659a2.45,2.45,0,0,1-2.39-2.509c0-.022,0-.044,0-.067V26.262A2.605,2.605,0,0,1,22.659,23.5h3.267ZM45.34,47.058a3.707,3.707,0,0,1-2.7,1.194,3.833,3.833,0,0,1-3.77-3.707,3.707,3.707,0,0,1,7.414,0v0A3.33,3.33,0,0,1,45.34,47.058Zm16.4-12.314c0,1.7-1.634,1.948-2.387,1.948H56.712V23.5H59.35c1.382,0,2.387,1.948,2.387,3.393Z" transform="translate(-17.756)"/>
  </g>
</svg>
